<svg version="1.1" xmlns="http://www.w3.org/2000/svg" xmlns:xlink="http://www.w3.org/1999/xlink" width="512" height="512" viewBox="0,0,256,256"><defs><linearGradient x1="256" y1="512" x2="256" y2="0" gradientUnits="userSpaceOnUse" id="color-1"><stop offset="0" stop-color="#ffffff"></stop><stop offset="1" stop-color="#ffffff"></stop></linearGradient></defs><g fill="url(#color-1)" fill-rule="nonzero" stroke="none" stroke-width="1" stroke-linecap="butt" stroke-linejoin="miter" stroke-miterlimit="10" stroke-dasharray="" stroke-dashoffset="0" font-family="none" font-weight="none" font-size="none" text-anchor="none" style="mix-blend-mode: normal"><g transform="scale(0.5,0.5)"><g><g><g><path d="M490.134,413.326l-100.163,-75.576c-3.791,-26.442 -20.449,-142.637 -23.113,-161.219c-1.343,-10.01 -4.689,-34.621 -22.868,-47.453l102.66,-103.515c4.264,-4.3 5.525,-10.742 3.196,-16.332c-2.329,-5.59 -7.79,-9.231 -13.846,-9.231h-197.701c-4.042,0 -7.913,1.631 -10.735,4.524l-43.722,44.805c-5.959,-2.817 -12.531,-4.304 -19.342,-4.304c-12.083,0 -23.415,4.677 -31.907,13.169l-84.901,84.899c-29.171,29.174 -29.171,76.641 -0.025,105.787l204.98,205.98c0.006,0.006 0.013,0.011 0.019,0.017c36.132,36.096 85.522,57.123 138.034,57.123h65.4c30.301,0 55.9,-25.141 55.9,-54.9c0,-17.038 -8.166,-33.395 -21.866,-43.774zM196.406,79.407c0.022,-0.022 0.04,-0.047 0.062,-0.069c0.021,-0.022 0.045,-0.04 0.067,-0.062l48.085,-49.276h155.378l-94.607,95.396c-19.165,19.162 -42.663,17.967 -59,13.59c-28.356,-7.598 -49.629,-28.294 -53.815,-43.914c-1.729,-6.456 -0.548,-11.287 3.83,-15.665zM456.1,482h-65.4c-44.158,0 -85.666,-17.187 -116.854,-48.368l-204.787,-205.786c-0.003,-0.002 -0.005,-0.004 -0.008,-0.007l-0.145,-0.146c-13.801,-13.802 -16.692,-34.436 -8.694,-51.112l72.462,72.462c5.857,5.857 15.355,5.858 21.213,0c5.858,-5.858 5.858,-15.355 0,-21.213l-74.252,-74.252l74.172,-74.17c2.791,-2.791 6.53,-4.343 10.543,-4.381c-3.073,8.563 -3.373,18.025 -0.751,27.811c7.531,28.106 39.085,55.496 75.028,65.127c31.373,8.406 60.48,2.527 82.761,-16.526c7.021,1.424 12.801,7.196 15.747,29.156c0.006,0.045 4.358,30.406 4.358,30.406h-43.248c-8.284,0 -15,6.716 -15,15c0,8.284 6.716,15 15,15h47.549l4.301,30h-43.278c-8.284,0 -15,6.716 -15,15c0,8.284 6.716,15 15,15h47.579l4.301,30h-43.307c-8.284,0 -15,6.716 -15,15c0,8.284 6.716,15 15,15h55.587l101.066,76.256c6.234,4.723 9.957,12.141 9.957,19.843c0,13.264 -12.103,24.9 -25.9,24.9zM111.156,392c8.284,0 15,-6.716 15,-15c0,-8.284 -6.716,-15 -15,-15h-36.156c-8.284,0 -15,6.716 -15,15c0,8.284 6.716,15 15,15zM30,437c0,8.284 6.716,15 15,15h126.156c8.284,0 15,-6.716 15,-15c0,-8.284 -6.716,-15 -15,-15h-126.156c-8.284,0 -15,6.716 -15,15zM231.812,482h-216.812c-8.284,0 -15,6.716 -15,15c0,8.284 6.716,15 15,15h216.812c8.284,0 15,-6.716 15,-15c0,-8.284 -6.716,-15 -15,-15z"></path></g></g></g></g></g></svg>