<?xml version="1.0"?>
<svg xmlns="http://www.w3.org/2000/svg" xmlns:xlink="http://www.w3.org/1999/xlink" xmlns:svgjs="http://svgjs.com/svgjs" version="1.1" width="512" height="512" x="0" y="0" viewBox="0 0 512 512" style="enable-background:new 0 0 512 512" xml:space="preserve" class=""><g><linearGradient xmlns="http://www.w3.org/2000/svg" id="SVGID_1_" gradientUnits="userSpaceOnUse" x1="256" x2="256" y1="512" y2="0"><stop stop-opacity="1" stop-color="#bfff00" offset="0"/><stop stop-opacity="1" stop-color="#bfff00" offset="1"/></linearGradient><g xmlns="http://www.w3.org/2000/svg"><g><path d="m490.134 413.326-100.163-75.576c-3.791-26.442-20.449-142.637-23.113-161.219-1.343-10.01-4.689-34.621-22.868-47.453l102.66-103.515c4.264-4.3 5.525-10.742 3.196-16.332s-7.79-9.231-13.846-9.231h-197.701c-4.042 0-7.913 1.631-10.735 4.524l-43.722 44.805c-5.959-2.817-12.531-4.304-19.342-4.304-12.083 0-23.415 4.677-31.907 13.169l-84.901 84.899c-29.171 29.174-29.171 76.641-.025 105.787l204.98 205.98c.006.006.013.011.019.017 36.132 36.096 85.522 57.123 138.034 57.123h65.4c30.301 0 55.9-25.141 55.9-54.9 0-17.038-8.166-33.395-21.866-43.774zm-293.728-333.919c.022-.022.04-.047.062-.069.021-.022.045-.04.067-.062l48.085-49.276h155.378l-94.607 95.396c-19.165 19.162-42.663 17.967-59 13.59-28.356-7.598-49.629-28.294-53.815-43.914-1.729-6.456-.548-11.287 3.83-15.665zm259.694 402.593h-65.4c-44.158 0-85.666-17.187-116.854-48.368l-204.787-205.786c-.003-.002-.005-.004-.008-.007l-.145-.146c-13.801-13.802-16.692-34.436-8.694-51.112l72.462 72.462c5.857 5.857 15.355 5.858 21.213 0s5.858-15.355 0-21.213l-74.252-74.252 74.172-74.17c2.791-2.791 6.53-4.343 10.543-4.381-3.073 8.563-3.373 18.025-.751 27.811 7.531 28.106 39.085 55.496 75.028 65.127 31.373 8.406 60.48 2.527 82.761-16.526 7.021 1.424 12.801 7.196 15.747 29.156.006.045 4.358 30.406 4.358 30.406h-43.248c-8.284 0-15 6.716-15 15s6.716 15 15 15h47.549l4.301 30h-43.278c-8.284 0-15 6.716-15 15s6.716 15 15 15h47.579l4.301 30h-43.307c-8.284 0-15 6.716-15 15s6.716 15 15 15h55.587l101.066 76.256c6.234 4.723 9.957 12.141 9.957 19.843 0 13.264-12.103 24.9-25.9 24.9zm-344.944-90c8.284 0 15-6.716 15-15s-6.716-15-15-15h-36.156c-8.284 0-15 6.716-15 15s6.716 15 15 15zm-81.156 45c0 8.284 6.716 15 15 15h126.156c8.284 0 15-6.716 15-15s-6.716-15-15-15h-126.156c-8.284 0-15 6.716-15 15zm201.812 45h-216.812c-8.284 0-15 6.716-15 15s6.716 15 15 15h216.812c8.284 0 15-6.716 15-15s-6.716-15-15-15z" fill="url(#SVGID_1_)" data-original="url(#SVGID_1_)" style=""/></g></g></g></svg>
