<svg version="1.1" xmlns="http://www.w3.org/2000/svg" xmlns:xlink="http://www.w3.org/1999/xlink" width="512" height="512" viewBox="0,0,256,256"><defs><linearGradient x1="119.97716" y1="474.07632" x2="145.63316" y2="0.79632" gradientUnits="userSpaceOnUse" id="color-1"><stop offset="0" stop-color="#ffffff"></stop><stop offset="1" stop-color="#ffffff"></stop></linearGradient><linearGradient x1="134.86516" y1="474.88432" x2="160.52916" y2="1.60432" gradientUnits="userSpaceOnUse" id="color-2"><stop offset="0" stop-color="#ffffff"></stop><stop offset="1" stop-color="#ffffff"></stop></linearGradient><linearGradient x1="231.38516" y1="480.11632" x2="257.04116" y2="6.83632" gradientUnits="userSpaceOnUse" id="color-3"><stop offset="0" stop-color="#ffffff"></stop><stop offset="1" stop-color="#ffffff"></stop></linearGradient><linearGradient x1="241.46087" y1="480.65869" x2="267.11687" y2="7.37869" gradientUnits="userSpaceOnUse" id="color-4"><stop offset="0" stop-color="#ffffff"></stop><stop offset="1" stop-color="#ffffff"></stop></linearGradient><linearGradient x1="256.33961" y1="481.4661" x2="282.00361" y2="8.1861" gradientUnits="userSpaceOnUse" id="color-5"><stop offset="0" stop-color="#ffffff"></stop><stop offset="1" stop-color="#ffffff"></stop></linearGradient><linearGradient x1="164.64916" y1="476.49232" x2="190.30516" y2="3.22032" gradientUnits="userSpaceOnUse" id="color-6"><stop offset="0" stop-color="#ffffff"></stop><stop offset="1" stop-color="#ffffff"></stop></linearGradient><linearGradient x1="286.13788" y1="483.08515" x2="311.79388" y2="9.80515" gradientUnits="userSpaceOnUse" id="color-7"><stop offset="0" stop-color="#ffffff"></stop><stop offset="1" stop-color="#ffffff"></stop></linearGradient><linearGradient x1="149.75316" y1="475.68432" x2="175.41716" y2="2.41232" gradientUnits="userSpaceOnUse" id="color-8"><stop offset="0" stop-color="#ffffff"></stop><stop offset="1" stop-color="#ffffff"></stop></linearGradient><linearGradient x1="271.23961" y1="482.27711" x2="296.89561" y2="8.99711" gradientUnits="userSpaceOnUse" id="color-9"><stop offset="0" stop-color="#ffffff"></stop><stop offset="1" stop-color="#ffffff"></stop></linearGradient><linearGradient x1="179.54516" y1="477.30032" x2="205.20116" y2="4.02832" gradientUnits="userSpaceOnUse" id="color-10"><stop offset="0" stop-color="#ffffff"></stop><stop offset="1" stop-color="#ffffff"></stop></linearGradient><linearGradient x1="301.0321" y1="483.89789" x2="326.6881" y2="10.61789" gradientUnits="userSpaceOnUse" id="color-11"><stop offset="0" stop-color="#ffffff"></stop><stop offset="1" stop-color="#ffffff"></stop></linearGradient></defs><g fill="none" fill-rule="nonzero" stroke="none" stroke-width="1" stroke-linecap="butt" stroke-linejoin="miter" stroke-miterlimit="10" stroke-dasharray="" stroke-dashoffset="0" font-family="none" font-weight="none" font-size="none" text-anchor="none" style="mix-blend-mode: normal"><g transform="translate(0.00006,2.09791) scale(0.53785,0.53895)"><g><path d="M139.00781,214.72266c8.14453,-2.17969 13.19922,-10.30469 11.55859,-18.57422c-1.64453,-8.26563 -9.42187,-13.84375 -17.78125,-12.74219c-8.35937,1.09766 -14.42969,8.49609 -13.87891,16.90625c0.55078,8.41406 7.53516,14.95703 15.96875,14.95703c1.39453,0.00391 2.78516,-0.17969 4.13281,-0.54687zM139.00781,214.72266" fill="url(#color-1)"></path><path d="M151.42578,261.09375c8.53906,-2.28125 13.60938,-11.05469 11.32813,-19.59375c-2.29297,-8.53125 -11.0625,-13.59375 -19.59375,-11.30469c-8.53125,2.28516 -13.59766,11.05469 -11.31641,19.58594c2.28125,8.53516 11.04688,13.60547 19.58203,11.32813zM151.42578,261.09375" fill="url(#color-2)"></path><path d="M475.73047,365.53125l-49.78516,-185.77344l20.89453,-78.08203c1.14453,-4.26953 -1.38672,-8.65625 -5.65625,-9.80078l-41.79687,-11.19922l-14.77734,-55.14453c-1.14453,-4.26562 -5.53125,-6.80078 -9.80078,-5.65625l-23.71094,6.40234c-10.03516,-9.33594 -24.16797,-12.85156 -37.40234,-9.30469c-13.23828,3.54688 -23.71875,13.66016 -27.74219,26.75781l-12.28125,3.28906l-172.48828,-46.26172c-4.26562,-1.14062 -8.64453,1.39063 -9.78906,5.65625l-25.84766,96.39063l-30.73047,8.19141c-4.26953,1.14453 -6.80078,5.53125 -5.65625,9.80078l15.76953,58.85547l-44.65625,166.76172c-1.14453,4.26563 1.38672,8.65625 5.65625,9.79688l92.98437,24.89062l21.35938,79.69531c0.93359,3.49609 4.10156,5.92969 7.71875,5.93359c0.70312,0 1.40234,-0.09375 2.08203,-0.27734l143.60547,-38.48828l72.25,19.36719c0.67578,0.17969 1.37109,0.26953 2.07031,0.27344c3.61719,-0.00391 6.78516,-2.43359 7.72266,-5.92969l10.32031,-38.46484l104,-27.87891c4.26563,-1.14453 6.80078,-5.53125 5.65234,-9.80078zM17.80078,342.80469l35.39844,-132.20703l40.92969,152.66406zM429.32031,105.24609l-11.64844,43.51172l-13.47266,-50.25zM300.37109,51.60547c2.20313,-12.22656 13.64453,-20.54687 25.95313,-18.87109c12.30859,1.67188 21.11719,12.74219 19.98047,25.11328c-1.14063,12.37109 -11.82031,21.64844 -24.22656,21.04688c-12.40625,-0.60156 -22.14062,-10.86719 -22.07812,-23.28906c0,-1.34375 0.125,-2.68359 0.37109,-4zM104.80078,18.27734l138,37l-159.39844,42.72656zM342.40234,429.80469l-37.82422,-10.12109l43.61328,-11.6875zM133.65625,448.93359l-86.97656,-324.52734l237.64844,-63.67578c0,0.05078 0.04297,0.09766 0.05078,0.13672c0.38281,2.94922 1.10547,5.84375 2.14844,8.625l-62.44531,35.19922c-2.60156,1.34375 -4.25781,4 -4.32422,6.92578c-0.07031,2.92187 1.46484,5.65234 4,7.11328c2.53516,1.46094 5.66406,1.42188 8.16406,-0.10156l63.02344,-35.48828c13.125,14.07422 34.42578,16.76953 50.64063,6.41016c16.21875,-10.35937 22.73047,-30.81641 15.48047,-48.64062c-0.03906,-0.22656 -0.09766,-0.44922 -0.16797,-0.66406l10.30078,-2.83203l87,324.52734zM133.65625,448.93359" fill="url(#color-3)"></path><path d="M179.16797,179.11719l154.55078,-41.41016l4.14063,15.45313l-154.55078,41.41406zM179.16797,179.11719" fill="url(#color-4)"></path><path d="M191.58203,225.48828l154.54688,-41.41406l4.14063,15.45313l-154.54687,41.41406zM191.58203,225.48828" fill="url(#color-5)"></path><path d="M176.28125,353.82031c8.07422,-2.1875 13.07422,-10.26172 11.42578,-18.46484c-1.64844,-8.20312 -9.375,-13.72266 -17.66797,-12.62109c-8.29297,1.10156 -14.3125,8.44531 -13.76172,16.79297c0.54688,8.34766 7.47656,14.83984 15.84375,14.84375c1.40625,0 2.80469,-0.18359 4.16016,-0.55078zM176.28125,353.82031" fill="url(#color-6)"></path><path d="M216.4375,318.21484l154.55469,-41.41406l4.14062,15.45313l-154.55469,41.41406zM216.4375,318.21484" fill="url(#color-7)"></path><path d="M163.85547,307.45313c4.10547,-1.09375 7.60547,-3.76953 9.73438,-7.44531c2.12891,-3.67578 2.70703,-8.04687 1.60938,-12.14844c-2.28906,-8.53516 -11.0625,-13.59766 -19.59766,-11.30859c-8.53125,2.28906 -13.59766,11.0625 -11.30859,19.59766c2.28906,8.53516 11.0625,13.59766 19.59766,11.3125zM163.85547,307.45313" fill="url(#color-8)"></path><path d="M204.01172,271.85547l154.54687,-41.41016l4.14453,15.45703l-154.55078,41.41016zM204.01172,271.85547" fill="url(#color-9)"></path><path d="M192.57031,370.875c-6.60937,-3.82031 -14.99609,-2.44141 -20.03125,3.29297c-5.03906,5.73828 -5.32422,14.23047 -0.67969,20.28906c4.64453,6.0625 12.91797,7.99609 19.76563,4.625c6.85156,-3.37109 10.36328,-11.10937 8.39063,-18.48437c-1.08203,-4.10547 -3.76172,-7.60937 -7.44531,-9.72266zM192.57031,370.875" fill="url(#color-10)"></path><path d="M228.85938,364.58984l154.54688,-41.41406l4.14063,15.45313l-154.54687,41.41406zM228.85938,364.58984" fill="url(#color-11)"></path></g></g></g></svg>