<svg version="1.1" xmlns="http://www.w3.org/2000/svg" xmlns:xlink="http://www.w3.org/1999/xlink" width="512" height="512" viewBox="0,0,256,256"><g fill="#ffffff" fill-rule="nonzero" stroke="none" stroke-width="1" stroke-linecap="butt" stroke-linejoin="miter" stroke-miterlimit="10" stroke-dasharray="" stroke-dashoffset="0" font-family="none" font-weight="none" font-size="none" text-anchor="none" style="mix-blend-mode: normal"><g transform="scale(0.5,0.5)"><g><g><path d="M316,306c0,-33.084 -26.916,-60 -60,-60c-33.084,0 -60,26.916 -60,60c0,33.084 26.916,60 60,60c33.084,0 60,-26.916 60,-60zM256,346c-22.056,0 -40,-17.944 -40,-40c0,-22.056 17.944,-40 40,-40c22.056,0 40,17.944 40,40c0,22.056 -17.944,40 -40,40z"></path><path d="M152,306c0,-33.084 -26.916,-60 -60,-60c-33.084,0 -60,26.916 -60,60c0,33.084 26.916,60 60,60c33.084,0 60,-26.916 60,-60zM92,346c-22.056,0 -40,-17.944 -40,-40c0,-22.056 17.944,-40 40,-40c22.056,0 40,17.944 40,40c0,22.056 -17.944,40 -40,40z"></path><path d="M480,306c0,-33.084 -26.916,-60 -60,-60c-33.084,0 -60,26.916 -60,60c0,33.084 26.916,60 60,60c33.084,0 60,-26.916 60,-60zM420,346c-22.056,0 -40,-17.944 -40,-40c0,-22.056 17.944,-40 40,-40c22.056,0 40,17.944 40,40c0,22.056 -17.944,40 -40,40z"></path><path d="M420,366c-35.894,0 -66.923,20.77 -82,49.47c-15.038,-28.626 -45.99,-49.47 -82,-49.47c-35.894,0 -66.923,20.77 -82,49.47c-15.038,-28.626 -45.99,-49.47 -82,-49.47c-49.854,0 -92,40.334 -92,90v46c0,5.522 4.478,10 10,10h492c5.522,0 10,-4.478 10,-10v-46c0,-49.662 -42.143,-90 -92,-90zM256,386c39.028,0 72,32.056 72,70v36h-144v-36c0,-37.944 32.972,-70 72,-70zM20,456c0,-37.944 32.972,-70 72,-70c39.028,0 72,32.056 72,70v36h-144zM492,492h-144v-36c0,-37.944 32.972,-70 72,-70c39.028,0 72,32.056 72,70z"></path><path d="M256,60c-16.542,0 -30,13.458 -30,30c0,16.542 13.458,30 30,30c16.542,0 30,-13.458 30,-30c0,-16.542 -13.458,-30 -30,-30zM256,100c-5.514,0 -10,-4.486 -10,-10c0,-5.514 4.486,-10 10,-10c5.514,0 10,4.486 10,10c0,5.514 -4.486,10 -10,10z"></path><path d="M146,90c0,16.542 13.458,30 30,30c16.542,0 30,-13.458 30,-30c0,-16.542 -13.458,-30 -30,-30c-16.542,0 -30,13.458 -30,30zM186,90c0,5.514 -4.486,10 -10,10c-5.514,0 -10,-4.486 -10,-10c0,-5.514 4.486,-10 10,-10c5.514,0 10,4.486 10,10z"></path><path d="M366,90c0,-16.542 -13.458,-30 -30,-30c-16.542,0 -30,13.458 -30,30c0,16.542 13.458,30 30,30c16.542,0 30,-13.458 30,-30zM326,90c0,-5.514 4.486,-10 10,-10c5.514,0 10,4.486 10,10c0,5.514 -4.486,10 -10,10c-5.514,0 -10,-4.486 -10,-10z"></path><circle cx="256" cy="10" r="10"></circle><path d="M266.829,166.013l-10.829,24.907l-10.829,-24.907c-1.588,-3.652 -5.19,-6.013 -9.171,-6.013h-100c-38.599,0 -70,-31.401 -70,-70c0,-38.599 31.401,-70 70,-70h75c5.522,0 10,-4.478 10,-10c0,-5.522 -4.478,-10 -10,-10h-75c-49.626,0 -90,40.374 -90,90c0,49.626 40.374,90 90,90h93.443l17.386,39.987c1.588,3.651 5.189,6.013 9.171,6.013c3.982,0 7.583,-2.361 9.171,-6.013l17.386,-39.987h93.443c49.626,0 90,-40.374 90,-90c0,-49.626 -40.374,-90 -90,-90h-75c-5.522,0 -10,4.478 -10,10c0,5.522 4.478,10 10,10h75c38.599,0 70,31.401 70,70c0,38.599 -31.401,70 -70,70h-100c-3.981,0 -7.583,2.361 -9.171,6.013z"></path></g></g></g></g></svg>