<svg version="1.1" xmlns="http://www.w3.org/2000/svg" xmlns:xlink="http://www.w3.org/1999/xlink" width="512" height="512" viewBox="0,0,256,256"><defs><linearGradient x1="256.157" y1="14" x2="256.157" y2="506.065" gradientUnits="userSpaceOnUse" id="color-1"><stop offset="0" stop-color="#ffffff"></stop><stop offset="1" stop-color="#ffffff"></stop></linearGradient><linearGradient x1="112677.13561" y1="2562.00228" x2="112677.13561" y2="80308.3586" gradientUnits="userSpaceOnUse" id="color-2"><stop offset="0" stop-color="#ffffff"></stop><stop offset="1" stop-color="#ffffff"></stop></linearGradient><linearGradient x1="46428.7098" y1="1901.93533" x2="46428.7098" y2="61043.35134" gradientUnits="userSpaceOnUse" id="color-3"><stop offset="0" stop-color="#ffffff"></stop><stop offset="1" stop-color="#ffffff"></stop></linearGradient><linearGradient x1="15585.60797" y1="1906.51967" x2="15585.60797" y2="61214.45849" gradientUnits="userSpaceOnUse" id="color-4"><stop offset="0" stop-color="#ffffff"></stop><stop offset="1" stop-color="#ffffff"></stop></linearGradient><linearGradient x1="91214" y1="2907.51164" x2="91214" y2="104958.68698" gradientUnits="userSpaceOnUse" id="color-5"><stop offset="0" stop-color="#ffffff"></stop><stop offset="1" stop-color="#ffffff"></stop></linearGradient></defs><g fill="none" fill-rule="nonzero" stroke="none" stroke-width="1" stroke-linecap="butt" stroke-linejoin="miter" stroke-miterlimit="10" stroke-dasharray="" stroke-dashoffset="0" font-family="none" font-weight="none" font-size="none" text-anchor="none" style="mix-blend-mode: normal"><g transform="scale(0.5,0.5)"><g><path d="M213.55,266.21c-20.42263,20.33533 -23.62821,52.26854 -7.65502,76.25743c15.97319,23.98889 46.67246,33.34628 73.31073,22.34573c26.63827,-11.00055 41.78984,-39.29252 36.18238,-67.56204c-5.60746,-28.26952 -30.4108,-48.63616 -59.2311,-48.63612c-15.97747,-0.03647 -31.3108,6.29559 -42.607,17.595zM296.317,308.828c-0.09885,19.06342 -13.63533,35.40884 -32.34638,39.05855c-18.71105,3.64971 -37.39808,-6.41031 -44.65398,-24.03914c-7.25591,-17.62882 -1.06475,-37.92855 14.79421,-48.50763c15.85896,-10.57908 36.97955,-8.49828 50.46915,4.97221c7.55685,7.56094 11.78197,17.82621 11.737,28.516z" fill="url(#color-1)"></path><path d="M391.837,350h-16.843c-29.16607,-0.05927 -56.30713,14.90468 -71.825,39.6c-11.77296,-6.84634 -25.12945,-10.50018 -38.748,-10.6h-16.842c-13.61885,0.09537 -26.97614,3.74952 -38.747,10.6c-15.53792,-24.67459 -42.66676,-39.6316 -71.826,-39.6h-16.843c-22.42336,-0.01312 -43.92383,8.92737 -59.72651,24.83595c-15.80268,15.90858 -24.59937,37.46828 -24.43649,59.89105v33.842c0,5.523 4.054,10.431 9.576,10.431h117.424v18.964c-0.00665,5.52792 4.4631,10.01781 9.991,10.036h166.018c5.5279,-0.01819 9.99765,-4.50808 9.991,-10.036v-18.964h117.424c5.522,0 9.576,-4.908 9.576,-10.431v-33.842c0.16288,-22.42277 -8.63382,-43.98248 -24.43649,-59.89105c-15.80268,-15.90858 -37.30315,-24.84907 -59.72651,-24.83595zM163.637,459h-107.637v-24.273c-0.1626,-17.11823 6.527,-33.59065 18.57888,-45.74847c12.05188,-12.15781 28.46513,-18.99132 45.58412,-18.97853h16.843c22.87902,0.12601 44.01085,12.25835 55.655,31.953c-16.14974,14.95966 -26.43929,35.18527 -29.022,57.047zM329,488h-146v-19.339c0,-21.684 11.121,-43.621 28.527,-56.864c10.811,-8.214 23.275,-12.8 36.052,-12.8h16.842c12.805,0 25.321,4.618 36.183,12.882c17.281,13.218 28.4,35.1 28.4,56.739zM456,459h-107.649c-2.59844,-21.85817 -12.88148,-42.08117 -29.013,-57.058c11.63343,-19.70454 32.77381,-31.83739 55.656,-31.942h16.843c17.11899,-0.01279 33.53225,6.82072 45.58412,18.97853c12.05188,12.15781 18.74148,28.63024 18.57888,45.74847z" fill="url(#color-2)"></path><path d="M383.572,219.272c-28.66034,0.05817 -53.29077,20.34837 -58.83496,48.46741c-5.5442,28.11904 9.54108,56.23993 36.03435,67.17268c26.49327,10.93274 57.0201,1.63419 72.91975,-22.21155c15.89965,-23.84574 12.74643,-55.60118 -7.53213,-75.85453c-11.29281,-11.2897 -26.6188,-17.61414 -42.587,-17.574zM412.017,307.929c-13.58414,13.62276 -34.90031,15.75096 -50.90964,5.08279c-16.00933,-10.66816 -22.25175,-31.16062 -14.90883,-48.94235c7.34292,-17.78173 26.22549,-27.89889 45.09745,-24.16291c18.87196,3.73598 32.47573,20.28427 32.49002,39.52247c0.05097,10.69255 -4.18847,20.95886 -11.769,28.5z" fill="url(#color-3)"></path><path d="M128.741,339.646c24.3879,0.04127 46.39642,-14.62056 55.75321,-37.14214c9.35678,-22.52159 4.21697,-48.46242 -13.02045,-65.71474c-17.23742,-17.25232 -43.1738,-22.41454 -65.70346,-13.07722c-22.52966,9.33732 -37.2105,31.33317 -37.1903,55.7211c-0.1056,15.99259 6.19718,31.36153 17.50101,42.67513c11.30383,11.3136 26.66731,17.62965 42.65999,17.53787zM100.276,251.009c13.54389,-13.63283 34.83403,-15.7944 50.84155,-5.1619c16.00753,10.6325 22.27021,31.09518 14.9555,48.86555c-7.31471,17.77037 -26.16778,27.8948 -45.02176,24.17747c-18.85398,-3.71733 -32.45316,-20.24018 -32.4753,-39.45711c-0.0284,-10.65226 4.18095,-20.87845 11.7,-28.424z" fill="url(#color-4)"></path><path d="M88.414,182h41.586v19.393c0.04999,3.74876 2.16937,7.16239 5.507,8.87c3.34986,1.76758 7.41903,1.4427 10.446,-0.834l38.979,-27.429h93.821c5.522,0 10.247,-4.166 10.247,-9.688v-29.312h50.282l48.418,49.71c1.8879,1.92502 4.47579,3.0021 7.172,2.985c1.31154,-0.00772 2.60963,-0.26496 3.825,-0.758c3.7873,-1.53431 6.27494,-5.20179 6.3,-9.288v-42.649h18.586c5.64028,-0.05021 10.23647,-4.54139 10.417,-10.179v-118.785c0,-5.523 -4.892,-10.036 -10.414,-10.036h-238.826c-2.63109,0.01789 -5.14517,1.08993 -6.97955,2.97619c-1.83439,1.88626 -2.83592,4.42925 -2.78045,7.05981v9.964h-86.586c-5.68727,0.17099 -10.25447,4.7474 -10.414,10.435v137.877c0,5.522 4.892,9.688 10.414,9.688zM195,44.435v-20.435h219v99h-19.13c-2.61985,-0.03534 -5.14342,0.98642 -7.00071,2.83449c-1.85728,1.84806 -2.89159,4.36653 -2.86929,6.98651v28.2l-34.258,-35.081c-1.91762,-1.91391 -4.52591,-2.97381 -7.235,-2.94h-148.507zM98,44h77v88.821c-0.06057,2.64549 0.93484,5.20621 2.76625,7.11624c1.83141,1.91004 4.34805,3.01214 6.99375,3.06276h84.24v19h-87.222c-2.10556,0.05519 -4.14644,0.7392 -5.86,1.964l-25.918,18.219v-9.871c0,-5.523 -4.229,-10.312 -9.752,-10.312h-42.248z" fill="url(#color-5)"></path></g></g></g></svg>