<?xml version="1.0"?>
<svg xmlns="http://www.w3.org/2000/svg" xmlns:xlink="http://www.w3.org/1999/xlink" xmlns:svgjs="http://svgjs.com/svgjs" version="1.1" width="512" height="512" x="0" y="0" viewBox="0 0 475.97032 475" style="enable-background:new 0 0 512 512" xml:space="preserve" class=""><g><linearGradient xmlns="http://www.w3.org/2000/svg" id="a"><stop stop-opacity="1" stop-color="#bfff00" offset="0"/><stop stop-opacity="1" stop-color="#bfff00" offset="1"/></linearGradient><linearGradient xmlns="http://www.w3.org/2000/svg" xmlns:xlink="http://www.w3.org/1999/xlink" id="b" gradientUnits="userSpaceOnUse" x1="119.977161" x2="145.633161" xlink:href="#a" y1="474.076323" y2=".796323"/><linearGradient xmlns="http://www.w3.org/2000/svg" xmlns:xlink="http://www.w3.org/1999/xlink" id="c" gradientUnits="userSpaceOnUse" x1="134.865161" x2="160.529161" xlink:href="#a" y1="474.884323" y2="1.604323"/><linearGradient xmlns="http://www.w3.org/2000/svg" xmlns:xlink="http://www.w3.org/1999/xlink" id="d" gradientUnits="userSpaceOnUse" x1="231.385161" x2="257.041161" xlink:href="#a" y1="480.116323" y2="6.836323"/><linearGradient xmlns="http://www.w3.org/2000/svg" xmlns:xlink="http://www.w3.org/1999/xlink" id="e" gradientUnits="userSpaceOnUse" x1="241.460868" x2="267.116868" xlink:href="#a" y1="480.658686" y2="7.378686"/><linearGradient xmlns="http://www.w3.org/2000/svg" xmlns:xlink="http://www.w3.org/1999/xlink" id="f" gradientUnits="userSpaceOnUse" x1="256.339612" x2="282.003612" xlink:href="#a" y1="481.466102" y2="8.186102"/><linearGradient xmlns="http://www.w3.org/2000/svg" xmlns:xlink="http://www.w3.org/1999/xlink" id="g" gradientUnits="userSpaceOnUse" x1="164.649161" x2="190.305161" xlink:href="#a" y1="476.492323" y2="3.220323"/><linearGradient xmlns="http://www.w3.org/2000/svg" xmlns:xlink="http://www.w3.org/1999/xlink" id="h" gradientUnits="userSpaceOnUse" x1="286.13788" x2="311.79388" xlink:href="#a" y1="483.085153" y2="9.805153"/><linearGradient xmlns="http://www.w3.org/2000/svg" xmlns:xlink="http://www.w3.org/1999/xlink" id="i" gradientUnits="userSpaceOnUse" x1="149.753161" x2="175.417161" xlink:href="#a" y1="475.684323" y2="2.412323"/><linearGradient xmlns="http://www.w3.org/2000/svg" xmlns:xlink="http://www.w3.org/1999/xlink" id="j" gradientUnits="userSpaceOnUse" x1="271.23961" x2="296.89561" xlink:href="#a" y1="482.277111" y2="8.997111"/><linearGradient xmlns="http://www.w3.org/2000/svg" xmlns:xlink="http://www.w3.org/1999/xlink" id="k" gradientUnits="userSpaceOnUse" x1="179.545161" x2="205.201161" xlink:href="#a" y1="477.300323" y2="4.028323"/><linearGradient xmlns="http://www.w3.org/2000/svg" xmlns:xlink="http://www.w3.org/1999/xlink" id="l" gradientUnits="userSpaceOnUse" x1="301.0321" x2="326.6881" xlink:href="#a" y1="483.897893" y2="10.617893"/><path xmlns="http://www.w3.org/2000/svg" d="m139.007812 214.722656c8.144532-2.179687 13.199219-10.304687 11.558594-18.574218-1.644531-8.265626-9.421875-13.84375-17.78125-12.742188-8.359375 1.097656-14.429687 8.496094-13.878906 16.90625.550781 8.414062 7.535156 14.957031 15.96875 14.957031 1.394531.003907 2.785156-.179687 4.132812-.546875zm0 0" fill="url(#b)" data-original="url(#b)" style=""/><path xmlns="http://www.w3.org/2000/svg" d="m151.425781 261.09375c8.539063-2.28125 13.609375-11.054688 11.328125-19.59375-2.292968-8.53125-11.0625-13.59375-19.59375-11.304688-8.53125 2.285157-13.597656 11.054688-11.316406 19.585938 2.28125 8.535156 11.046875 13.605469 19.582031 11.328125zm0 0" fill="url(#c)" data-original="url(#c)" style=""/><path xmlns="http://www.w3.org/2000/svg" d="m475.730469 365.53125-49.785157-185.773438 20.894532-78.082031c1.144531-4.269531-1.386719-8.65625-5.65625-9.800781l-41.796875-11.199219-14.777344-55.144531c-1.144531-4.265625-5.53125-6.800781-9.800781-5.65625l-23.710938 6.402344c-10.035156-9.335938-24.167968-12.851563-37.402344-9.304688-13.238281 3.546875-23.71875 13.660156-27.742187 26.757813l-12.28125 3.289062-172.488281-46.261719c-4.265625-1.140624-8.644532 1.390626-9.789063 5.65625l-25.847656 96.390626-30.730469 8.191406c-4.269531 1.144531-6.800781 5.53125-5.65625 9.800781l15.769532 58.855469-44.65625 166.761718c-1.144532 4.265626 1.386718 8.65625 5.65625 9.796876l92.984374 24.890624 21.359376 79.695313c.933593 3.496094 4.101562 5.929687 7.71875 5.933594.703124 0 1.402343-.09375 2.082031-.277344l143.605469-38.488281 72.25 19.367187c.675781.179688 1.371093.269531 2.070312.273438 3.617188-.003907 6.785156-2.433594 7.722656-5.929688l10.320313-38.464843 104-27.878907c4.265625-1.144531 6.800781-5.53125 5.652343-9.800781zm-457.929688-22.726562 35.398438-132.207032 40.929687 152.664063zm411.519531-237.558594-11.648437 43.511718-13.472656-50.25zm-128.949218-53.640625c2.203125-12.226563 13.644531-20.546875 25.953125-18.871094 12.308593 1.671875 21.117187 12.742187 19.980469 25.113281-1.140626 12.371094-11.820313 21.648438-24.226563 21.046875-12.40625-.601562-22.140625-10.867187-22.078125-23.289062 0-1.34375.125-2.683594.371094-4zm-195.570313-33.328125 138 37-159.398437 42.726562zm237.601563 411.527344-37.824219-10.121094 43.613281-11.6875zm-208.746094 19.128906-86.976562-324.527344 237.648437-63.675781c0 .050781.042969.097656.050781.136719.382813 2.949218 1.105469 5.84375 2.148438 8.625l-62.445313 35.199218c-2.601562 1.34375-4.257812 4-4.324219 6.925782-.070312 2.921874 1.464844 5.652343 4 7.113281 2.535157 1.460937 5.664063 1.421875 8.164063-.101563l63.023437-35.488281c13.125 14.074219 34.425782 16.769531 50.640626 6.410156 16.21875-10.359375 22.730468-30.816406 15.480468-48.640625-.039062-.226562-.097656-.449218-.167968-.664062l10.300781-2.832032 87 324.527344zm0 0" fill="url(#d)" data-original="url(#d)" style="" class=""/><path xmlns="http://www.w3.org/2000/svg" d="m179.167969 179.117188 154.550781-41.410157 4.140625 15.453125-154.550781 41.414063zm0 0" fill="url(#e)" data-original="url(#e)" style=""/><path xmlns="http://www.w3.org/2000/svg" d="m191.582031 225.488281 154.546875-41.414062 4.140625 15.453125-154.546875 41.414062zm0 0" fill="url(#f)" data-original="url(#f)" style=""/><path xmlns="http://www.w3.org/2000/svg" d="m176.28125 353.820312c8.074219-2.1875 13.074219-10.261718 11.425781-18.464843-1.648437-8.203125-9.375-13.722657-17.667969-12.621094-8.292968 1.101563-14.3125 8.445313-13.761718 16.792969.546875 8.347656 7.476562 14.839844 15.84375 14.84375 1.40625 0 2.804687-.183594 4.160156-.550782zm0 0" fill="url(#g)" data-original="url(#g)" style=""/><path xmlns="http://www.w3.org/2000/svg" d="m216.4375 318.214844 154.554688-41.414063 4.140624 15.453125-154.554687 41.414063zm0 0" fill="url(#h)" data-original="url(#h)" style=""/><path xmlns="http://www.w3.org/2000/svg" d="m163.855469 307.453125c4.105469-1.09375 7.605469-3.769531 9.734375-7.445313 2.128906-3.675781 2.707031-8.046874 1.609375-12.148437-2.289063-8.535156-11.0625-13.597656-19.597657-11.308594-8.53125 2.289063-13.597656 11.0625-11.308593 19.597657 2.289062 8.535156 11.0625 13.597656 19.597656 11.3125zm0 0" fill="url(#i)" data-original="url(#i)" style=""/><path xmlns="http://www.w3.org/2000/svg" d="m204.011719 271.855469 154.546875-41.410157 4.144531 15.457032-154.550781 41.410156zm0 0" fill="url(#j)" data-original="url(#j)" style="" class=""/><path xmlns="http://www.w3.org/2000/svg" d="m192.570312 370.875c-6.609374-3.820312-14.996093-2.441406-20.03125 3.292969-5.039062 5.738281-5.324218 14.230469-.679687 20.289062 4.644531 6.0625 12.917969 7.996094 19.765625 4.625 6.851562-3.371093 10.363281-11.109375 8.390625-18.484375-1.082031-4.105468-3.761719-7.609375-7.445313-9.722656zm0 0" fill="url(#k)" data-original="url(#k)" style=""/><path xmlns="http://www.w3.org/2000/svg" d="m228.859375 364.589844 154.546875-41.414063 4.140625 15.453125-154.546875 41.414063zm0 0" fill="url(#l)" data-original="url(#l)" style=""/></g></svg>
